<svg xmlns="http://www.w3.org/2000/svg" version="1.0" viewBox="127 265.09 820 420.91"><path d="M216.1 676.4c-3.4-25.9-11.5-44.2-26.5-60.1-16.1-17.1-35.3-27-55.8-29l-6.8-.6V512h95v-32.4c0-36.8 1.1-48.9 6.5-70.2 13.6-54.4 47.7-98.4 95.8-123.9 44.2-23.5 101.8-27 148.7-9 26.9 10.3 46.7 23 66 42.4 26.6 26.8 42.8 55.3 50.9 89.9 5 21.4 5 21.3 5.1 153.2l.2 123.5-48.4.3-48.4.2-1.2-10.9c-4.9-43.8-31.7-75.9-71.8-85.8-20.8-5.1-47.9.6-66.7 14.1-22.3 15.8-35.4 40.1-38.8 71.7l-1.2 10.9H217.4zM497 497.5c0-14 .1-14.8 2.9-20.3 4-7.9 7.6-18.5 9.1-26.3 3-16.7-5.4-39.4-20.9-56.1-9.8-10.7-22.8-19.5-53.1-35.8-7.4-4-16.3-9.2-19.7-11.6l-6.3-4.3-6.2 4.3c-3.5 2.4-12.4 7.6-19.8 11.7-21.6 11.6-31.3 17.5-39.7 23.8-22.4 17-34.5 37.8-34.6 59.6 0 11.2 2 18.7 8.4 32.6l4.9 10.6V512h175z"/><path d="M759.6 678.8c-1.4-15.5-7.1-34-13.7-45-7.5-12.2-18.8-24.5-29.4-31.8-10.8-7.4-26.4-13.1-40-14.6-12.2-1.3-31.3 3.7-44.7 11.6-3.9 2.4-7.9 4-9.7 4H619l.2-45.2.3-45.3 68.3-.3 68.2-.2v-28.1l4.4-9.2c12.2-25.3 11-45.5-4-68.3-10-15.1-26.3-28-53.9-42.7-14.9-7.9-25.9-14.4-31.2-18.3l-3.2-2.4-6.5 4.5c-3.5 2.5-13.8 8.4-22.8 13.1-9 4.8-19.7 10.8-23.9 13.5-5.1 3.3-8.7 4.9-10.8 4.9-2.9 0-3.4-.5-4.9-4.2-7.9-20.4-22.4-43.3-38.2-60.2-5.5-5.9-6.1-6.9-5.8-10.2s1.1-4.4 7.2-9c8-6.1 26.7-16 37.6-19.9 28.1-10 65.9-13 99.4-8 67.4 10.2 122.5 58.3 145 126.5 8.7 26.4 10.6 41.9 10.6 87.2V512l45.8.2 45.7.3.3 37 .2 37.1-9.2 1.2c-30.6 4.2-56.4 23.3-70.5 52.3-4.8 9.7-10 28.1-10.9 38.7l-.7 7.2h-95.4z"/></svg>